<?xml version="1.0"?>
<svg xmlns="http://www.w3.org/2000/svg" id="Capa_1" enable-background="new 0 0 512 512" height="512px" viewBox="0 0 512 512" width="512px"><g><g><path d="m165.876 67.765c0-9.293 7.561-16.853 16.854-16.853h146.524c9.293 0 16.853 7.56 16.853 16.853v28.1h30v-28.1c0-25.835-21.018-46.853-46.853-46.853h-146.525c-25.835 0-46.854 21.018-46.854 46.853v28.1h30v-28.1z" data-original="#000000" class="active-path" data-old_color="#000000" fill="#FFB229"/><path d="m0 125.864v175.497c0 9.293 7.561 16.853 16.854 16.853h66.863v-54.069h93.706v54.069h157.154v-54.069h93.706v54.069h66.863c9.293 0 16.854-7.56 16.854-16.853v-175.497z" data-original="#000000" class="active-path" data-old_color="#000000" fill="#FFB229"/><path d="m364.577 294.144h33.706v78.139h-33.706z" data-original="#000000" class="active-path" data-old_color="#000000" fill="#FFB229"/><path d="m113.717 294.144h33.706v78.139h-33.706z" data-original="#000000" class="active-path" data-old_color="#000000" fill="#FFB229"/><path d="m428.283 348.214v54.07h-93.706v-54.07h-157.154v54.07h-93.706v-54.07h-66.863c-5.94 0-11.62-1.123-16.854-3.148v146.023h512v-146.023c-5.234 2.025-10.914 3.148-16.854 3.148z" data-original="#000000" class="active-path" data-old_color="#000000" fill="#FFB229"/></g></g> </svg>
